<?xml version="1.0" standalone="no"?>
<!DOCTYPE svg PUBLIC "-//W3C//DTD SVG 20010904//EN"
 "http://www.w3.org/TR/2001/REC-SVG-20010904/DTD/svg10.dtd">
<svg version="1.0" xmlns="http://www.w3.org/2000/svg"
 width="512.000000pt" height="512.000000pt" viewBox="0 0 512.000000 512.000000"
 preserveAspectRatio="xMidYMid meet">

<g transform="translate(0.000000,512.000000) scale(0.100000,-0.100000)"
fill="#000000" stroke="none">
<path d="M1370 4963 c-35 -7 -78 -40 -95 -73 -11 -22 -201 -476 -442 -1058 -3
-7 12 -1 33 13 34 23 46 26 89 21 34 -3 232 -81 604 -235 304 -127 564 -237
577 -246 26 -17 54 -65 63 -107 5 -22 50 80 225 500 236 569 245 598 207 660
-29 46 -50 57 -344 177 -144 59 -390 161 -548 225 -290 119 -325 131 -369 123z"/>
<path d="M1064 2730 c-24 -12 -49 -35 -61 -58 -12 -20 -145 -337 -297 -704
-186 -449 -276 -679 -276 -703 0 -78 54 -136 132 -143 43 -3 59 0 87 20 19 13
43 37 52 53 10 17 142 330 294 698 196 473 276 679 277 707 1 108 -112 179
-208 130z"/>
<path d="M3280 2373 c-249 -38 -454 -217 -526 -458 -29 -95 -25 -268 9 -363
49 -139 130 -248 244 -326 92 -62 188 -94 333 -110 139 -15 193 -38 262 -108
66 -68 91 -139 86 -243 -4 -60 -11 -92 -30 -130 -32 -61 -103 -129 -166 -158
l-47 -22 -1672 -5 c-1669 -5 -1672 -5 -1699 -26 -50 -37 -68 -70 -68 -124 0
-54 18 -87 68 -124 27 -21 28 -21 1687 -24 1856 -3 1735 -7 1889 70 99 49 204
147 259 242 73 122 101 304 71 452 -20 100 -83 216 -160 297 -118 125 -238
181 -424 198 -79 8 -127 18 -167 36 -170 75 -244 286 -159 453 24 46 94 117
139 140 77 38 118 40 967 40 904 0 870 -2 914 60 54 75 28 180 -55 220 -40 20
-60 20 -886 19 -464 -1 -855 -3 -869 -6z"/>
</g>
</svg>
