<?xml version="1.0" encoding="UTF-8"?>
<svg version="1.1" xmlns="http://www.w3.org/2000/svg" width="512" height="512">
<path d="M0 0 C5.31633363 4.53691491 8.99096558 9.14236927 10.26171875 16.15234375 C10.88721283 28.51408193 5.27947031 39.69820338 -0.21484375 50.5234375 C0.61128418 50.89106201 1.43741211 51.25868652 2.28857422 51.63745117 C5.40185207 53.02415611 8.5142013 54.41290684 11.62597656 55.80297852 C12.96383545 56.40013372 14.30204221 56.99651028 15.640625 57.59204102 C37.64567968 67.38396093 37.64567968 67.38396093 40.78515625 70.5234375 C42.00409436 78.86915972 38.67028029 85.35358219 35.23284912 92.73034668 C33.84159096 95.71628543 32.48761169 98.71869817 31.13037109 101.72021484 C30.41943416 103.29108748 29.70651933 104.86106636 28.99169922 106.43017578 C25.57803517 113.93129394 22.32065325 121.49533817 19.09411621 129.07846069 C17.53047091 132.75331328 15.96027232 136.42536428 14.390625 140.09765625 C14.08504669 140.81301041 13.77946838 141.52836456 13.46463013 142.26539612 C9.98740496 150.40030258 6.46538198 158.51568834 2.92944336 166.62524414 C0.02150348 173.30413519 -2.8435892 179.99925011 -5.66426086 186.7155304 C-7.29212685 190.58987786 -8.92829517 194.46069951 -10.56454468 198.33151245 C-11.36873505 200.24081957 -12.16877239 202.15188159 -12.96450806 204.06472778 C-14.08059313 206.74685029 -15.21069962 209.42266544 -16.34375 212.09765625 C-16.6755426 212.90558624 -17.00733521 213.71351624 -17.34918213 214.54592896 C-20.29636155 221.43693336 -20.29636155 221.43693336 -24.21484375 223.5234375 C-26.97574494 224.17052372 -29.44305989 224.11293754 -32.21484375 223.5234375 C-34.77734375 221.5234375 -34.77734375 221.5234375 -36.21484375 218.5234375 C-35.87657059 212.65435946 -34.48790054 208.06983821 -32.06640625 202.7578125 C-31.7425293 202.02401871 -31.41865234 201.29022491 -31.08496094 200.53419495 C-30.38201912 198.94486 -29.67427055 197.35764403 -28.96221924 195.77236938 C-27.81222809 193.21195215 -26.67479654 190.64627536 -25.54052734 188.07885742 C-24.33644223 185.3537614 -23.13159461 182.62903092 -21.92300415 179.90592957 C-17.48921181 169.91393044 -13.16153251 159.87681121 -8.83984375 149.8359375 C-7.2636191 146.17422118 -5.68689845 142.51271948 -4.109375 138.8515625 C-3.7150679 137.93627274 -3.3207608 137.02098297 -2.914505 136.07795715 C-0.34743157 130.12695674 2.24164458 124.18593733 4.84436035 118.2504425 C6.62914692 114.17873373 8.40735603 110.10416752 10.18511963 106.02938843 C11.03759223 104.08054191 11.89330268 102.13310824 12.75238037 100.18716431 C13.94210728 97.49157338 15.12062802 94.79133811 16.296875 92.08984375 C16.65211746 91.29298157 17.00735992 90.49611938 17.37336731 89.67510986 C19.03673785 85.82506768 20.26098274 82.81120429 19.78515625 78.5234375 C17.49533285 77.5190241 15.20349635 76.51976138 12.91015625 75.5234375 C12.25917969 75.23726563 11.60820312 74.95109375 10.9375 74.65625 C7.48877286 73.06417985 7.48877286 73.06417985 3.78515625 72.5234375 C-8.47394685 100.68133922 -20.69243255 128.85634678 -32.85595703 157.05566406 C-36.41029608 165.29531005 -39.96847802 173.53329667 -43.52633667 181.77142334 C-45.50599324 186.35536147 -47.48540628 190.93940475 -49.46484375 195.5234375 C-50.25650925 197.35677134 -51.04817591 199.19010467 -51.83984375 201.0234375 C-52.23171875 201.9309375 -52.62359375 202.8384375 -53.02734375 203.7734375 C-54.21484375 206.5234375 -55.40234375 209.2734375 -56.58984375 212.0234375 C-56.98167847 212.93084686 -57.37351318 213.83825623 -57.77722168 214.77316284 C-58.56928745 216.60741507 -59.36136103 218.44166393 -60.15344238 220.27590942 C-62.12656652 224.84515618 -64.09955727 229.41446044 -66.07226562 233.98388672 C-69.70626519 242.40102306 -73.34141471 250.81765568 -76.98132324 259.23223877 C-78.65758135 263.10756437 -80.33308667 266.98321525 -82.00854492 270.85888672 C-82.789587 272.66503664 -83.57097714 274.47103611 -84.3527832 276.27685547 C-84.71782959 277.12006348 -85.08287598 277.96327148 -85.45898438 278.83203125 C-85.97230206 280.0150243 -85.97230206 280.0150243 -86.4959898 281.2219162 C-87.22681413 282.91843521 -87.95032648 284.6181395 -88.66357899 286.32212067 C-90.62337076 290.97985558 -92.69625154 295.51306617 -95.02861023 299.9967041 C-104.08677354 318.11759747 -104.70442708 333.84590001 -104.33451676 353.65965223 C-104.27027503 357.84049867 -104.27544866 362.02128812 -104.27384949 366.20254517 C-104.26182868 374.08932142 -104.19939081 381.97468274 -104.11318463 389.86096728 C-103.95870432 404.00358702 -103.8605626 418.14632945 -103.82865351 432.28976214 C-103.81506743 437.23635764 -103.76903873 442.18121381 -103.69571555 447.12727141 C-103.65559941 450.20562384 -103.64034215 453.28376798 -103.63102341 456.36235237 C-103.62151399 457.77649736 -103.60173108 459.19062122 -103.57027626 460.60444832 C-103.34006815 471.28432284 -105.30079651 479.4814094 -112.13853168 487.88869286 C-120.2028964 495.93772141 -130.93322248 497.95693714 -141.99078059 498.04908693 C-143.1568595 498.0387998 -144.3229384 498.02851268 -145.52435303 498.01791382 C-146.79909524 498.02274265 -148.07383746 498.02757148 -149.38720822 498.03254664 C-152.88651788 498.04524178 -156.38535698 498.03334193 -159.88463521 498.01701808 C-163.67331246 498.00376014 -167.46194149 498.01378331 -171.25062561 498.02078247 C-178.65612661 498.03082416 -186.06144784 498.0196376 -193.46692649 498.00108187 C-202.09908611 497.98023556 -210.73120767 497.98045629 -219.36338773 497.98142703 C-234.76719861 497.98242649 -250.1709262 497.96415164 -265.57470703 497.93505859 C-280.50864173 497.90686773 -295.44250317 497.89271805 -310.37646484 497.89404297 C-311.29691643 497.89412288 -312.21736803 497.89420279 -313.16571209 497.89428513 C-314.0846028 497.89436584 -315.00349352 497.89444655 -315.95022941 497.8945297 C-332.97618376 497.89591047 -350.00210712 497.88412566 -367.02805142 497.86622327 C-373.04026517 497.86020011 -379.05247321 497.85806531 -385.06468964 497.85715866 C-392.39175391 497.85579229 -399.71876589 497.84683333 -407.04580799 497.82849304 C-410.78162306 497.81928099 -414.51737143 497.81315724 -418.25319862 497.81568146 C-422.30662938 497.81828744 -426.35986332 497.80534188 -430.41326904 497.79086304 C-432.17577173 497.79550884 -432.17577173 497.79550884 -433.97388053 497.8002485 C-445.88552963 497.729983 -454.37133842 495.94253939 -463.23046875 487.6328125 C-469.31970819 481.13421243 -471.67966675 474.45760461 -471.60074711 465.59160995 C-471.60600622 464.83127132 -471.61126533 464.07093269 -471.61668381 463.28755349 C-471.63059954 460.74896994 -471.62328464 458.21090675 -471.61598206 455.67230225 C-471.62158926 453.83016009 -471.62849252 451.98802151 -471.63657802 450.14588857 C-471.65491592 445.09058618 -471.65453319 440.03543274 -471.6509949 434.98010468 C-471.65038247 429.52527211 -471.66694304 424.07048721 -471.6811676 418.61567688 C-471.70608 407.93123285 -471.7143318 397.24683847 -471.71600474 386.56236783 C-471.71743054 377.87701296 -471.72359642 369.19167446 -471.73310661 360.50632477 C-471.75952429 335.87849507 -471.77338327 311.25070231 -471.77111519 286.62285861 C-471.77105536 285.95934767 -471.77099552 285.29583673 -471.77093387 284.61221939 C-471.77081256 283.27043893 -471.77068717 281.92865847 -471.7705577 280.58687801 C-471.7687197 259.71394322 -471.79123613 238.84115467 -471.83227539 217.96826172 C-471.87838474 194.50712038 -471.90413445 171.04605923 -471.90138572 147.58486772 C-471.90038989 135.16659543 -471.9086275 122.74848807 -471.94091988 110.3302536 C-471.96823786 99.75724643 -471.97475842 89.18447896 -471.95439161 78.61145177 C-471.94459724 73.21848209 -471.94442018 67.82597226 -471.97045135 62.43304634 C-471.99405658 57.49182701 -471.98974388 52.55143192 -471.96359896 47.61023262 C-471.95899601 45.82695546 -471.96443525 44.04361668 -471.98117919 42.26041219 C-472.08158778 30.8043043 -471.17691449 21.54955328 -463.40621763 12.39202762 C-454.92769012 4.23136735 -445.31680501 2.93149292 -433.96911621 3.01550293 C-432.66497442 3.00926297 -431.36083262 3.003023 -430.01717138 2.99659395 C-426.42182669 2.97998838 -422.82690996 2.9881065 -419.23156428 3.00053883 C-415.34463995 3.00962325 -411.45778703 2.99560284 -407.57087708 2.98461914 C-399.96612235 2.96686538 -392.36152585 2.97065984 -384.75676501 2.9822697 C-378.57429562 2.99131616 -372.39187047 2.99252279 -366.20939636 2.98817444 C-365.32829825 2.98756151 -364.44720015 2.98694857 -363.5394021 2.98631707 C-361.74927174 2.98503812 -359.95914139 2.98374127 -358.16901106 2.9824267 C-341.39677984 2.97103011 -324.62463618 2.98412014 -307.85241932 3.00562817 C-293.4720443 3.02349832 -279.09179846 3.02039395 -264.71142578 3.00195312 C-247.99777492 2.98053012 -231.28420072 2.97212867 -214.57053804 2.98440218 C-212.78712242 2.98567633 -211.00370678 2.98693381 -209.22029114 2.98817444 C-207.90419987 2.98910009 -207.90419987 2.98910009 -206.5615209 2.99004444 C-200.38899219 2.99349306 -194.21651225 2.98767955 -188.04399109 2.97825623 C-180.5181195 2.96701897 -172.99241472 2.9701125 -165.46656215 2.9913792 C-161.62930556 3.00186647 -157.79232673 3.00605141 -153.9550724 2.99278259 C-149.78999858 2.9785984 -145.62562152 2.9955743 -141.46057129 3.01550293 C-139.65267695 3.0021186 -139.65267695 3.0021186 -137.80825949 2.98846388 C-127.58594787 3.08324955 -119.52604348 5.428758 -111.97265625 12.5234375 C-106.9833343 18.20017714 -104.11990779 24.4329326 -104.05662537 31.99066162 C-104.04194214 33.32413887 -104.04194214 33.32413887 -104.02696228 34.68455505 C-104.02120682 35.6520015 -104.01545135 36.61944794 -104.00952148 37.61621094 C-103.99962189 38.64091995 -103.98972229 39.66562897 -103.97952271 40.72138977 C-103.94793458 44.10850717 -103.92316079 47.4956386 -103.8984375 50.8828125 C-103.87786566 53.23122523 -103.85686913 55.57963427 -103.83546448 57.92803955 C-103.78026759 64.109365 -103.73084774 70.29072373 -103.68261719 76.47210693 C-103.63238481 82.77961184 -103.5767078 89.08706841 -103.52148438 95.39453125 C-103.41393192 107.77079204 -103.31248042 120.1470948 -103.21484375 132.5234375 C-102.96480685 131.93872177 -102.71476995 131.35400604 -102.45715618 130.75157166 C-92.49409687 107.45368713 -82.526111 84.157761 -72.45446777 60.90655518 C-71.59066599 58.91103296 -70.72826538 56.9149036 -69.86730957 54.91815186 C-68.66291391 52.12598373 -67.4532626 49.33615125 -66.2421875 46.546875 C-65.89198044 45.73226807 -65.54177338 44.91766113 -65.18095398 44.07836914 C-59.5661276 31.19907943 -59.5661276 31.19907943 -56.21484375 29.5234375 C-51.97513317 29.28789802 -48.85306073 29.19497864 -45.21484375 31.5234375 C-45.08883789 30.79511719 -44.96283203 30.06679688 -44.83300781 29.31640625 C-43.83186689 24.79308391 -41.85230175 20.73814954 -39.96484375 16.5234375 C-39.58199219 15.63398438 -39.19914062 14.74453125 -38.8046875 13.828125 C-35.84577505 7.19778606 -32.47278136 2.65941489 -26.21484375 -1.2265625 C-25.57546875 -1.63390625 -24.93609375 -2.04125 -24.27734375 -2.4609375 C-16.53906827 -6.27145194 -6.88156108 -4.88915839 0 0 Z " fill="#E9F5FE" transform="translate(471.21484375,9.4765625)"/>
<path d="M0 0 C5.31633363 4.53691491 8.99096558 9.14236927 10.26171875 16.15234375 C10.88721283 28.51408193 5.27947031 39.69820338 -0.21484375 50.5234375 C0.61128418 50.89106201 1.43741211 51.25868652 2.28857422 51.63745117 C5.40185207 53.02415611 8.5142013 54.41290684 11.62597656 55.80297852 C12.96383545 56.40013372 14.30204221 56.99651028 15.640625 57.59204102 C37.64567968 67.38396093 37.64567968 67.38396093 40.78515625 70.5234375 C42.00409436 78.86915972 38.67028029 85.35358219 35.23284912 92.73034668 C33.84159096 95.71628543 32.48761169 98.71869817 31.13037109 101.72021484 C30.41943416 103.29108748 29.70651933 104.86106636 28.99169922 106.43017578 C25.57803517 113.93129394 22.32065325 121.49533817 19.09411621 129.07846069 C17.53047091 132.75331328 15.96027232 136.42536428 14.390625 140.09765625 C14.08504669 140.81301041 13.77946838 141.52836456 13.46463013 142.26539612 C9.98740496 150.40030258 6.46538198 158.51568834 2.92944336 166.62524414 C0.02150348 173.30413519 -2.8435892 179.99925011 -5.66426086 186.7155304 C-7.29212685 190.58987786 -8.92829517 194.46069951 -10.56454468 198.33151245 C-11.36873505 200.24081957 -12.16877239 202.15188159 -12.96450806 204.06472778 C-14.08059313 206.74685029 -15.21069962 209.42266544 -16.34375 212.09765625 C-16.6755426 212.90558624 -17.00733521 213.71351624 -17.34918213 214.54592896 C-20.29636155 221.43693336 -20.29636155 221.43693336 -24.21484375 223.5234375 C-26.97574494 224.17052372 -29.44305989 224.11293754 -32.21484375 223.5234375 C-34.77734375 221.5234375 -34.77734375 221.5234375 -36.21484375 218.5234375 C-35.87657059 212.65435946 -34.48790054 208.06983821 -32.06640625 202.7578125 C-31.7425293 202.02401871 -31.41865234 201.29022491 -31.08496094 200.53419495 C-30.38201912 198.94486 -29.67427055 197.35764403 -28.96221924 195.77236938 C-27.81222809 193.21195215 -26.67479654 190.64627536 -25.54052734 188.07885742 C-24.33644223 185.3537614 -23.13159461 182.62903092 -21.92300415 179.90592957 C-17.48921181 169.91393044 -13.16153251 159.87681121 -8.83984375 149.8359375 C-7.2636191 146.17422118 -5.68689845 142.51271948 -4.109375 138.8515625 C-3.7150679 137.93627274 -3.3207608 137.02098297 -2.914505 136.07795715 C-0.34743157 130.12695674 2.24164458 124.18593733 4.84436035 118.2504425 C6.62914692 114.17873373 8.40735603 110.10416752 10.18511963 106.02938843 C11.03759223 104.08054191 11.89330268 102.13310824 12.75238037 100.18716431 C13.94210728 97.49157338 15.12062802 94.79133811 16.296875 92.08984375 C16.65211746 91.29298157 17.00735992 90.49611938 17.37336731 89.67510986 C19.03673785 85.82506768 20.26098274 82.81120429 19.78515625 78.5234375 C17.49533285 77.5190241 15.20349635 76.51976138 12.91015625 75.5234375 C12.25917969 75.23726563 11.60820312 74.95109375 10.9375 74.65625 C7.48877286 73.06417985 7.48877286 73.06417985 3.78515625 72.5234375 C-8.47394685 100.68133922 -20.69243255 128.85634678 -32.85595703 157.05566406 C-36.41029608 165.29531005 -39.96847802 173.53329667 -43.52633667 181.77142334 C-45.50599324 186.35536147 -47.48540628 190.93940475 -49.46484375 195.5234375 C-50.25650925 197.35677134 -51.04817591 199.19010467 -51.83984375 201.0234375 C-52.23171875 201.9309375 -52.62359375 202.8384375 -53.02734375 203.7734375 C-54.21484375 206.5234375 -55.40234375 209.2734375 -56.58984375 212.0234375 C-56.98167847 212.93084686 -57.37351318 213.83825623 -57.77722168 214.77316284 C-58.56928745 216.60741507 -59.36136103 218.44166393 -60.15344238 220.27590942 C-62.12656652 224.84515618 -64.09955727 229.41446044 -66.07226562 233.98388672 C-69.70665089 242.40191642 -73.34221474 250.81943001 -76.98246765 259.23492432 C-78.65140514 263.09327288 -80.319786 266.95186191 -81.98794556 270.81054688 C-82.80126004 272.69179305 -83.61471464 274.57297866 -84.42831421 276.45410156 C-88.19707333 285.16978395 -91.96344825 293.88582534 -95.640625 302.640625 C-96.13884766 303.82640137 -96.63707031 305.01217773 -97.15039062 306.23388672 C-98.01912613 308.309302 -98.88421245 310.38625207 -99.74414062 312.46533203 C-101.73116562 317.22386762 -103.85171302 321.86049177 -106.18359375 326.4609375 C-109.18417717 332.38135412 -111.82603767 338.40852918 -114.40234375 344.5234375 C-115.44456099 346.9755836 -116.48754403 349.42739433 -117.53125 351.87890625 C-117.95401215 352.87340034 -117.95401215 352.87340034 -118.38531494 353.88798523 C-123.3151001 365.47540764 -128.3270084 377.02780695 -133.32666016 388.58520508 C-134.13444397 390.45263505 -134.94222398 392.32006666 -135.75 394.1875 C-136.14014282 395.08923447 -136.53028564 395.99096893 -136.93225098 396.92002869 C-138.90621764 401.48533896 -140.87292516 406.05352816 -142.82226562 410.62940979 C-143.5474197 412.33146729 -144.27534159 414.0323448 -145.00341797 415.7331543 C-145.82415964 417.65162615 -146.63997898 419.57221505 -147.44970703 421.49536133 C-149.98973939 427.41088532 -149.98973939 427.41088532 -152.21484375 428.5234375 C-154.81759976 427.59745147 -157.31140975 426.60138363 -159.84375 425.5078125 C-161.00459358 425.01708 -161.00459358 425.01708 -162.18888855 424.51643372 C-164.72173105 423.4431499 -167.24955174 422.35855659 -169.77734375 421.2734375 C-171.50727314 420.53717639 -173.23741712 419.8014193 -174.96777344 419.06616211 C-209.73108367 404.26531754 -209.73108367 404.26531754 -217.21484375 400.5234375 C-216.52838451 395.63499723 -214.59708341 391.43702509 -212.62890625 386.95703125 C-212.26054657 386.1077858 -211.89218689 385.25854034 -211.51266479 384.38356018 C-210.29287328 381.57404712 -209.06630247 378.76754569 -207.83984375 375.9609375 C-206.97799767 373.97874075 -206.11667806 371.99631502 -205.25585938 370.01367188 C-203.46591063 365.89217405 -201.67369276 361.77167416 -199.87988281 357.65185547 C-196.19630077 349.1872166 -192.54022936 340.71073433 -188.88421631 332.23416138 C-186.91242314 327.66334535 -184.93851849 323.0934413 -182.96484375 318.5234375 C-182.17316715 316.69010846 -181.38150048 314.85677513 -180.58984375 313.0234375 C-179.00651042 309.35677083 -177.42317708 305.69010417 -175.83984375 302.0234375 C-175.25200859 300.66213463 -175.25200859 300.66213463 -174.65229797 299.27333069 C-173.86078467 297.44035306 -173.0692706 295.60737576 -172.27775574 293.7743988 C-170.29623615 289.18562599 -168.31473019 284.5968473 -166.33325195 280.00805664 C-162.79887778 271.82303992 -159.26441996 263.63805939 -155.72943115 255.45330811 C-153.787 250.9558809 -151.84465953 246.45841453 -149.90234375 241.9609375 C-149.51729675 241.06936951 -149.13224976 240.17780151 -148.73553467 239.25921631 C-144.01627802 228.33153722 -139.29956465 217.40276486 -134.5859375 206.47265625 C-134.11118988 205.37186234 -133.63644226 204.27106842 -133.14730835 203.13691711 C-130.77190641 197.62898943 -128.39688128 192.12089975 -126.02246094 186.61254883 C-122.06405587 177.43149037 -118.10303197 168.25172643 -114.109375 159.0859375 C-113.80533752 158.38745697 -113.50130005 157.68897644 -113.18804932 156.96932983 C-111.8476994 153.89030145 -110.5050227 150.8123839 -109.15673828 147.73681641 C-106.95838285 142.69216103 -104.85499225 137.63779518 -102.9140625 132.48828125 C-99.44160245 123.35187725 -95.48595902 114.42238539 -91.58984375 105.4609375 C-90.33047196 102.55777178 -89.07181106 99.65429851 -87.81318665 96.75080872 C-86.94379676 94.74544686 -86.07407299 92.74022973 -85.20402527 90.7351532 C-82.07958928 83.53135716 -78.97686321 76.31845401 -75.8828125 69.1015625 C-74.59632212 66.10528016 -73.30948335 63.10914769 -72.02252197 60.11306763 C-71.19785947 58.19103121 -70.37455778 56.26841031 -69.55267334 54.34518433 C-68.40350082 51.65685859 -67.24916857 48.9708022 -66.09375 46.28515625 C-65.75909225 45.49848572 -65.42443451 44.71181519 -65.07963562 43.90130615 C-59.60409986 31.21806555 -59.60409986 31.21806555 -56.21484375 29.5234375 C-51.97513317 29.28789802 -48.85306073 29.19497864 -45.21484375 31.5234375 C-45.08883789 30.79511719 -44.96283203 30.06679688 -44.83300781 29.31640625 C-43.83186689 24.79308391 -41.85230175 20.73814954 -39.96484375 16.5234375 C-39.58199219 15.63398438 -39.19914063 14.74453125 -38.8046875 13.828125 C-35.84577505 7.19778606 -32.47278136 2.65941489 -26.21484375 -1.2265625 C-25.25578125 -1.83757813 -25.25578125 -1.83757813 -24.27734375 -2.4609375 C-16.53906827 -6.27145194 -6.88156108 -4.88915839 0 0 Z " fill="#61A2F9" transform="translate(471.21484375,9.4765625)"/>
<path d="M0 0 C4.35651709 0.66971464 8.18160337 2.20903347 12.1953125 3.95703125 C12.89286148 4.25642609 13.59041046 4.55582092 14.30909729 4.86428833 C16.58321604 5.84211714 18.85415459 6.8270961 21.125 7.8125 C22.69235613 8.48861321 24.25982123 9.16447382 25.82739258 9.84008789 C39.59919972 15.78602192 53.3157382 21.8553721 67 28 C66.39701003 31.51144247 65.47439603 34.5382176 64.04492188 37.7980957 C63.63879166 38.73111511 63.23266144 39.66413452 62.81422424 40.62542725 C62.14821449 42.13535248 62.14821449 42.13535248 61.46875 43.67578125 C61.00536728 44.73758606 60.54198456 45.79939087 60.06455994 46.89337158 C58.54732249 50.36830376 57.02360808 53.840357 55.5 57.3125 C53.39446717 62.12904538 51.29260151 66.94718602 49.19140625 71.765625 C48.66507095 72.97162857 48.13873566 74.17763214 47.59645081 75.42018127 C44.32546433 82.92505834 41.09119414 90.44423914 37.90234375 97.984375 C37.5162796 98.89708664 37.13021545 99.80979828 36.73245239 100.75016785 C34.95083519 104.96733266 33.17563056 109.18711202 31.40625 113.40942383 C28.29365133 120.80923568 25.05160314 128.05571411 21.39233398 135.20678711 C18.98122949 140.04379333 16.91021526 145.02103551 14.8125 150 C13.77028276 152.4521461 12.72729972 154.90395683 11.68359375 157.35546875 C11.40175232 158.01846481 11.11991089 158.68146088 10.82952881 159.36454773 C5.89974365 170.95197014 0.88783535 182.50436945 -4.11181641 194.06176758 C-4.91960022 195.92919755 -5.72738023 197.79662916 -6.53515625 199.6640625 C-6.92529907 200.56579697 -7.31544189 201.46753143 -7.71740723 202.39659119 C-9.69137389 206.96190146 -11.65808141 211.53009066 -13.60742188 216.10597229 C-14.33257595 217.80802979 -15.06049784 219.5089073 -15.78857422 221.2097168 C-16.60931589 223.12818865 -17.42513523 225.04877755 -18.23486328 226.97192383 C-20.77489564 232.88744782 -20.77489564 232.88744782 -23 234 C-25.60275601 233.07401397 -28.096566 232.07794613 -30.62890625 230.984375 C-31.78974983 230.4936425 -31.78974983 230.4936425 -32.9740448 229.99299622 C-35.5068873 228.9197124 -38.03470799 227.83511909 -40.5625 226.75 C-42.29242939 226.01373889 -44.02257337 225.2779818 -45.75292969 224.54272461 C-80.51623992 209.74188004 -80.51623992 209.74188004 -88 206 C-87.31354076 201.11155973 -85.38223966 196.91358759 -83.4140625 192.43359375 C-83.04570282 191.5843483 -82.67734314 190.73510284 -82.29782104 189.86012268 C-81.07802953 187.05060962 -79.85145872 184.24410819 -78.625 181.4375 C-77.76315392 179.45530325 -76.90183431 177.47287752 -76.04101562 175.49023438 C-74.25106688 171.36873655 -72.45884901 167.24823666 -70.66503906 163.12841797 C-66.98145702 154.6637791 -63.32538561 146.18729683 -59.66937256 137.71072388 C-57.69757939 133.13990785 -55.72367474 128.5700038 -53.75 124 C-52.9583234 122.16667096 -52.16665673 120.33333763 -51.375 118.5 C-46.625 107.50000001 -46.625 107.50000001 -45.43762207 104.75028992 C-44.64554149 102.91599322 -43.85346793 101.0816935 -43.06140137 99.24739075 C-41.08862501 94.67877202 -39.11572875 90.11020515 -37.14257812 85.54174805 C-33.50376147 77.11641915 -29.86603743 68.69062429 -26.23246765 60.26303101 C-17.55817226 40.14432993 -8.88371233 20.02739697 0 0 Z " fill="#5986CB" transform="translate(342,204)"/>
<path d="M0 0 C0.2475 0.66 0.495 1.32 0.75 2 C1.86447677 4.84746178 1.86447677 4.84746178 3.0234375 6.796875 C3.38695312 7.44140625 3.75046875 8.0859375 4.125 8.75 C4.47820312 9.34296875 4.83140625 9.9359375 5.1953125 10.546875 C8.15718187 19.57626319 4.37831956 27.3140031 0.9375 35.625 C0.42418589 36.89353136 -0.08825915 38.16241472 -0.59985352 39.43164062 C-3.55488941 46.71613952 -6.68959655 53.87729614 -10.10546875 60.95703125 C-12.64862245 66.29586015 -14.93207448 71.74818434 -17.25 77.1875 C-18.29547101 79.63936644 -19.34100399 82.09120627 -20.38671875 84.54296875 C-20.66704956 85.20042084 -20.94738037 85.85787292 -21.23620605 86.5352478 C-24.75011433 94.76916269 -28.30299717 102.98625433 -31.85427856 111.20410156 C-33.07172241 114.02134123 -34.28871667 116.83877476 -35.50561523 119.65625 C-39.24211815 128.30659553 -42.98050399 136.9561233 -46.72232056 145.60417175 C-47.94798375 148.43733458 -49.1730236 151.27076626 -50.39794922 154.10424805 C-51.99369775 157.79548688 -53.59199717 161.48560655 -55.19189453 165.17504883 C-58.91716831 173.77719362 -62.59626468 182.39374171 -66.1640625 191.0625 C-66.81124275 192.62548944 -67.45861682 194.18839865 -68.10620117 195.7512207 C-69.30038646 198.63384357 -70.47470053 201.52347484 -71.63793945 204.41870117 C-72.16281787 205.689603 -72.68840692 206.96021166 -73.21484375 208.23046875 C-73.65948975 209.32770264 -74.10413574 210.42493652 -74.56225586 211.55541992 C-76 214 -76 214 -77.86364746 214.72976685 C-81.52946095 215.19346576 -84.65613001 213.34725886 -87.94140625 211.88671875 C-88.70549301 211.55710648 -89.46957977 211.2274942 -90.25682068 210.88789368 C-91.87038608 210.18945371 -93.48159685 209.48555227 -95.09057617 208.77661133 C-97.55236224 207.69196662 -100.02042224 206.62286519 -102.49023438 205.55664062 C-104.05768065 204.87589495 -105.62475108 204.19428309 -107.19140625 203.51171875 C-107.92895645 203.19079758 -108.66650665 202.8698764 -109.42640686 202.53923035 C-112.46951343 201.19650701 -115.22511649 199.84992234 -118 198 C-117.22922119 196.24695557 -117.22922119 196.24695557 -116.44287109 194.45849609 C-114.50765101 190.05660051 -112.57328678 185.65432925 -110.63916016 181.25195312 C-109.80735659 179.35894942 -108.97533141 177.46604307 -108.14306641 175.57324219 C-105.42220438 169.38500002 -102.70685552 163.19438249 -100 157 C-99.69823853 156.31006958 -99.39647705 155.62013916 -99.08557129 154.90930176 C-96.48205266 148.94409489 -93.96151763 142.96899336 -91.6640625 136.87890625 C-88.20535891 127.77062051 -84.25867998 118.8703455 -80.375 109.9375 C-79.11562821 107.03433428 -77.85696731 104.13086101 -76.5983429 101.22737122 C-75.72895301 99.22200936 -74.85922924 97.21679223 -73.98918152 95.2117157 C-70.86474553 88.00791966 -67.76201946 80.79501651 -64.66796875 73.578125 C-63.38147837 70.58184266 -62.0946396 67.58571019 -60.80767822 64.58963013 C-59.98301572 62.66759371 -59.15971403 60.74497281 -58.33782959 58.82174683 C-57.18865707 56.13342109 -56.03432482 53.4473647 -54.87890625 50.76171875 C-54.5442485 49.97504822 -54.20959076 49.18837769 -53.86479187 48.37786865 C-48.38925611 35.69462805 -48.38925611 35.69462805 -45 34 C-40.76028942 33.76446052 -37.63821698 33.67154114 -34 36 C-33.87399414 35.27167969 -33.74798828 34.54335938 -33.61816406 33.79296875 C-32.61702314 29.26964641 -30.637458 25.21471204 -28.75 21 C-28.36714844 20.11054688 -27.98429687 19.22109375 -27.58984375 18.3046875 C-23.90744428 10.05315692 -18.97367602 5.18211171 -11 1 C-7.31803621 -0.13965546 -3.8418968 -0.08934644 0 0 Z " fill="#7FB4FA" transform="translate(460,5)"/>
<path d="M0 0 C0.67352715 -0.00538554 1.3470543 -0.01077108 2.04099137 -0.01631981 C4.30274522 -0.03065208 6.56391815 -0.02348306 8.82569885 -0.01637268 C10.44525118 -0.02207353 12.06479949 -0.02903668 13.68434143 -0.03717041 C18.0872422 -0.05514886 22.48994418 -0.05392464 26.89287066 -0.04822803 C30.56597399 -0.04514282 34.23903876 -0.05122118 37.91213661 -0.05726677 C46.57622759 -0.07132587 55.24021999 -0.06973931 63.90431213 -0.05836487 C72.84815447 -0.04688276 81.79169698 -0.06095767 90.7354998 -0.08776134 C98.40946615 -0.10989995 106.08333826 -0.11655987 113.75733429 -0.11068493 C118.34281691 -0.10730966 122.92810733 -0.10976802 127.51356316 -0.12693596 C131.82530506 -0.14237375 136.13660199 -0.13848507 140.44832611 -0.11963081 C142.03179144 -0.11593607 143.61528951 -0.11907915 145.19872475 -0.1295166 C147.35874859 -0.14266884 149.51728678 -0.13123284 151.67724609 -0.11352539 C153.49102076 -0.11321146 153.49102076 -0.11321146 155.34143734 -0.1128912 C159.01675795 0.48820442 160.19945218 1.43236011 162.40211487 4.38768005 C163.12974253 8.65520796 163.01876719 12.9075239 162.97853088 17.23216248 C162.96467438 19.31622883 162.99872676 21.39579052 163.03688049 23.47947693 C163.0349469 24.7988324 163.03301331 26.11818787 163.03102112 27.4775238 C163.03210876 29.28531311 163.03210876 29.28531311 163.03321838 31.12962341 C162.20982023 35.38039645 160.73909154 36.6841841 157.40211487 39.38768005 C154.30940819 39.95710468 154.30940819 39.95710468 150.81211853 39.87994385 C149.50340601 39.86443072 148.19469349 39.8489176 146.84632301 39.83293438 C145.42269232 39.79131329 143.99906973 39.74941418 142.57545471 39.70726013 C141.08927663 39.68205523 139.60305221 39.65946064 138.11679649 39.63934803 C135.04711841 39.59519091 131.9780449 39.5386978 128.90876007 39.47273636 C122.16545926 39.33492852 115.42253672 39.34841542 108.67799377 39.3434906 C106.04107711 39.33429428 103.40416456 39.32383616 100.76725769 39.31216431 C100.10620148 39.30924143 99.44514526 39.30631856 98.76405704 39.30330712 C89.37812394 39.26089766 79.99223748 39.20830712 70.60637856 39.15196514 C62.99924119 39.10658662 55.39215818 39.06715127 47.78492737 39.04124451 C41.05172234 39.01830766 34.31866462 38.98502497 27.58557642 38.93897849 C24.04746811 38.91511935 20.50950415 38.89633907 16.97131729 38.89006615 C13.06217884 38.8829299 9.15341406 38.85257105 5.24440002 38.8200531 C4.08208359 38.82148819 2.91976715 38.82292328 1.722229 38.82440186 C0.66354111 38.81186371 -0.39514679 38.79932556 -1.48591614 38.78640747 C-2.40632879 38.78179851 -3.32674145 38.77718954 -4.27504539 38.77244091 C-7.06323077 38.31059906 -7.96155846 37.66538317 -9.59788513 35.38768005 C-9.98606873 32.1572113 -9.98606873 32.1572113 -9.99632263 28.20018005 C-9.99919281 27.50126648 -10.00206299 26.80235291 -10.00502014 26.08226013 C-10.00705939 24.60625904 -10.00153916 23.13023084 -9.98899841 21.65428162 C-9.97294093 19.39552867 -9.98884984 17.13856487 -10.00804138 14.87986755 C-10.00605892 13.44496777 -10.00221519 12.0100691 -9.99632263 10.57518005 C-9.99293884 9.26935974 -9.98955505 7.96353943 -9.98606873 6.6181488 C-9.59788513 3.38768005 -9.59788513 3.38768005 -8.48599148 1.71000576 C-5.67512933 -0.25856729 -3.40855488 0.00685175 0 0 Z " fill="#7CA1B1" transform="translate(106.59788513183594,55.61231994628906)"/>
<path d="M0 0 C9.44389771 3.06724267 9.44389771 3.06724267 13.81640625 5.04296875 C14.59951172 5.39423828 15.38261719 5.74550781 16.18945312 6.10742188 C16.97255859 6.46384766 17.75566406 6.82027344 18.5625 7.1875 C19.38041016 7.55552734 20.19832031 7.92355469 21.04101562 8.30273438 C23.02909218 9.19795013 25.01480308 10.0984165 27 11 C26.39701003 14.51144247 25.47439603 17.5382176 24.04492188 20.7980957 C23.63879166 21.73111511 23.23266144 22.66413452 22.81422424 23.62542725 C22.37021774 24.63204407 21.92621124 25.63866089 21.46875 26.67578125 C21.00536728 27.73758606 20.54198456 28.79939087 20.06455994 29.89337158 C18.54732249 33.36830376 17.02360808 36.840357 15.5 40.3125 C13.39446717 45.12904538 11.29260151 49.94718602 9.19140625 54.765625 C8.40190331 56.57463036 8.40190331 56.57463036 7.59645081 58.42018127 C4.32546433 65.92505834 1.09119414 73.44423914 -2.09765625 80.984375 C-2.4837204 81.89708664 -2.86978455 82.80979828 -3.26754761 83.75016785 C-5.04916481 87.96733266 -6.82436944 92.18711202 -8.59375 96.40942383 C-11.70634867 103.80923568 -14.94839686 111.05571411 -18.60766602 118.20678711 C-21.01877051 123.04379333 -23.08978474 128.02103551 -25.1875 133 C-26.22971724 135.4521461 -27.27270028 137.90395683 -28.31640625 140.35546875 C-28.59824768 141.01846481 -28.88008911 141.68146088 -29.17047119 142.36454773 C-34.10025635 153.95197014 -39.11216465 165.50436945 -44.11181641 177.06176758 C-44.91960022 178.92919755 -45.72738023 180.79662916 -46.53515625 182.6640625 C-46.92529907 183.56579697 -47.31544189 184.46753143 -47.71740723 185.39659119 C-49.69137389 189.96190146 -51.65808141 194.53009066 -53.60742188 199.10597229 C-54.33257595 200.80802979 -55.06049784 202.5089073 -55.78857422 204.2097168 C-56.60931589 206.12818865 -57.42513523 208.04877755 -58.23486328 209.97192383 C-60.77489564 215.88744782 -60.77489564 215.88744782 -63 217 C-67.12603404 215.7065724 -71.07770671 213.92347601 -75.0625 212.25 C-76.18978516 211.79367187 -77.31707031 211.33734375 -78.47851562 210.8671875 C-80.08436523 210.19816406 -80.08436523 210.19816406 -81.72265625 209.515625 C-82.71015869 209.10602539 -83.69766113 208.69642578 -84.71508789 208.27441406 C-87 207 -87 207 -88 204 C-87.31347656 201.78735352 -87.31347656 201.78735352 -86.140625 199.12890625 C-85.47148071 197.59073242 -85.47148071 197.59073242 -84.78881836 196.02148438 C-84.2810083 194.88001953 -83.77319824 193.73855469 -83.25 192.5625 C-82.71064848 191.3305248 -82.17235313 190.09808678 -81.63500977 188.86523438 C-80.43088455 186.10510528 -79.22187968 183.34717635 -78.01025391 180.59033203 C-75.86577309 175.70292601 -73.74931948 170.80359918 -71.63671875 165.90234375 C-71.25816742 165.02413467 -70.87961609 164.1459256 -70.48959351 163.24110413 C-69.70601894 161.4230385 -68.92250132 159.60494833 -68.13903809 157.78683472 C-66.09424247 153.04415741 -64.04504499 148.3033831 -61.99609375 143.5625 C-57.55579047 133.28705329 -53.11773166 123.01063875 -48.68045044 112.73388672 C-46.70373712 108.15587979 -44.72686004 103.57794358 -42.75 99 C-41.95833255 97.166667 -41.16666589 95.33333367 -40.375 93.5 C-38 88 -35.625 82.5 -33.25 77 C-32.85726395 76.09050598 -32.46452789 75.18101196 -32.05989075 74.24395752 C-30.8732605 71.49597168 -29.68663025 68.74798584 -28.5 66 C-28.11443939 65.1071228 -27.72887878 64.21424561 -27.33163452 63.29431152 C-25.7706248 59.67934163 -24.20961507 56.06437174 -22.64860535 52.44940186 C-22.25586929 51.53990784 -21.86313324 50.63041382 -21.45849609 49.69335938 C-21.05934998 48.769021 -20.66020386 47.84468262 -20.2489624 46.89233398 C-19.63072601 45.46062866 -19.63072601 45.46062866 -19 44 C-16.30338542 37.75520833 -13.60677083 31.51041667 -10.91015625 25.265625 C-10.26264404 23.76612305 -10.26264404 23.76612305 -9.60205078 22.23632812 C-8.74544271 20.25260417 -7.88883464 18.26888021 -7.03222656 16.28515625 C-6.62198242 15.33511719 -6.21173828 14.38507813 -5.7890625 13.40625 C-5.39957932 12.50428894 -5.01009613 11.60232788 -4.60881042 10.67303467 C-4.2390358 9.81671448 -3.86926117 8.96039429 -3.48828125 8.078125 C-2.32552083 5.38541667 -1.16276042 2.69270833 0 0 Z " fill="#4278C3" transform="translate(382,221)"/>
<path d="M0 0 C4.80137245 -0.09978872 9.60212521 -0.17189617 14.40429688 -0.21972656 C16.03363578 -0.23969079 17.66290445 -0.2668723 19.29199219 -0.30175781 C31.75226319 -0.56166531 41.69240667 0.03016537 51.2421875 9 C56.22791047 14.6726448 59.01928324 20.88687881 59.24137878 28.41911316 C59.26876633 29.29933136 59.29615387 30.17954956 59.32437134 31.08644104 C59.34905487 32.04557907 59.3737384 33.0047171 59.39916992 33.99291992 C59.42822922 35.01029236 59.45728851 36.02766479 59.48722839 37.0758667 C59.74420796 46.58978461 59.89514226 56.10549265 60.01475048 65.62203503 C60.0964478 71.98464486 60.21116506 78.34236139 60.4128418 84.70239258 C61.38631472 116.21557223 59.71173905 141.45440291 44.45733738 169.4727459 C40.48585549 176.77187474 37.31099943 184.34968456 34.19434738 192.0447607 C32.88901497 195.2592953 31.54774427 198.45859698 30.2109375 201.66015625 C29.47340617 203.43987545 28.73618774 205.2197246 28 207 C27.67 207 27.34 207 27 207 C26.99853344 206.07639238 26.99706688 205.15278477 26.99555588 204.20118904 C26.95892876 181.70727317 26.89943702 159.21350582 26.81609726 136.71971321 C26.77632141 125.84178552 26.7439215 114.96393003 26.72900391 104.0859375 C26.71597989 94.60249212 26.68899596 85.11920569 26.64538693 75.63584983 C26.62278911 70.61644058 26.60708832 65.59722724 26.60811615 60.5777626 C26.60886375 55.84823948 26.59087285 51.11914918 26.55883217 46.38973808 C26.55034988 44.65884692 26.54857184 42.92790712 26.55419731 41.19700432 C26.58784426 29.24771712 25.48146151 19.39870189 17.765625 9.75390625 C12.87322756 4.89398047 6.59970116 2.54461091 0 1 C0 0.67 0 0.34 0 0 Z " fill="#C8EEFD" transform="translate(308,13)"/>
<path d="M0 0 C0.33 0 0.66 0 1 0 C1.14044132 19.61099144 1.24610347 39.2218802 1.31087303 58.83327103 C1.3417521 67.9401256 1.38381805 77.04666688 1.45263672 86.15332031 C1.51262181 94.09485874 1.55119235 102.03617018 1.56453097 109.97792888 C1.57232263 114.17939164 1.59050844 118.38020527 1.63438034 122.58145905 C1.67542468 126.54444136 1.68760589 130.50651372 1.67864609 134.46968842 C1.68028267 135.916 1.69202804 137.36234534 1.71523285 138.80847168 C1.87918941 149.5633185 0.1294242 158.32185507 -7.259058 166.50072098 C-15.50434278 174.53494648 -23.41722783 175.37743101 -34.43359375 175.26367188 C-35.95573468 175.23861404 -37.4778701 175.2132193 -39 175.1875 C-40.55337248 175.17242973 -42.10675906 175.15874546 -43.66015625 175.14648438 C-47.44045615 175.11365497 -51.22007063 175.06200254 -55 175 C-52 173 -52 173 -49.73046875 171.73828125 C-40.91145421 166.79367248 -36.19659244 161.94706159 -32.83825684 152.35482788 C-31.18225603 145.72726764 -31.39429774 138.96511693 -31.390625 132.17578125 C-31.37561438 130.57722829 -31.35888127 128.97869066 -31.34051514 127.38017273 C-31.29715213 123.20951556 -31.27691223 119.03906746 -31.26177979 114.8682251 C-31.2420956 110.59757277 -31.20013902 106.3271426 -31.16015625 102.05664062 C-31.0851913 93.70448575 -31.03469691 85.35241887 -31 77 C-31.66 76.67 -32.32 76.34 -33 76 C-32.56880859 75.01233643 -32.13761719 74.02467285 -31.69335938 73.00708008 C-21.07972526 48.69255184 -10.51424135 24.35767132 0 0 Z " fill="#C8EEFD" transform="translate(366,331)"/>
<path d="M0 0 C1.05021725 -0.00709439 2.1004345 -0.01418877 3.18247652 -0.02149814 C6.70726725 -0.03912284 10.23096185 -0.02094941 13.7557373 -0.00291443 C16.28035485 -0.00805149 18.80496882 -0.01533116 21.32957458 -0.02459717 C27.47825567 -0.04121903 33.62652928 -0.03445869 39.775195 -0.01650894 C44.77219567 -0.00248433 49.76911008 0.00141017 54.76612854 -0.00195122 C55.8328487 -0.00266738 55.8328487 -0.00266738 56.92111877 -0.00339801 C58.36579146 -0.00442434 59.81046414 -0.0054797 61.25513679 -0.00656378 C74.03030289 -0.01513177 86.80531557 0.00154728 99.58044434 0.03126526 C111.97731979 0.06010295 124.37397423 0.06718637 136.77087402 0.05177307 C150.26964972 0.03501277 163.76832047 0.03097492 177.2670989 0.04848343 C178.70646253 0.05032782 180.14582617 0.05216255 181.58518982 0.0539875 C182.29338766 0.05489959 183.0015855 0.05581168 183.73124388 0.05675141 C188.72234159 0.06235789 193.71338809 0.0590486 198.70448303 0.05244255 C205.42192841 0.04390456 212.13900729 0.05686348 218.8564167 0.08429146 C221.32474889 0.09119005 223.7931108 0.09125759 226.26144218 0.08407593 C229.62509287 0.07541559 232.98775087 0.0912807 236.35131836 0.11352539 C237.33331727 0.10528462 238.31531617 0.09704386 239.32707262 0.08855337 C243.64668344 0.1414538 246.03169377 0.2324928 249.77942657 2.53535557 C251.81532175 4.78233184 252.35900779 5.64074004 252.30065918 8.62818909 C252.3135498 9.28818909 252.32644043 9.94818909 252.33972168 10.62818909 C251.25504488 13.89498039 249.59745381 14.83283909 246.67565918 16.62818909 C243.23644881 17.22433775 239.8347192 17.17208489 236.35131836 17.14285278 C235.30110111 17.14979831 234.25088386 17.15674384 233.16884184 17.16389984 C229.64420655 17.18221912 226.12024058 17.17189142 222.59558105 17.16163635 C220.07096349 17.16869225 217.54635016 17.17743587 215.02174377 17.18774414 C208.87312777 17.20794171 202.72475978 17.20925673 196.57612336 17.2011186 C191.57912733 17.19481923 186.58218528 17.19595503 181.58518982 17.20239067 C180.87404304 17.20329233 180.16289627 17.20419398 179.43019959 17.20512296 C177.9855269 17.20697415 176.54085423 17.20883671 175.09618157 17.21071052 C161.54887161 17.22728973 148.0016658 17.21856856 134.45436209 17.20172494 C122.05840214 17.18702567 109.66268451 17.20165924 97.26675576 17.2304951 C84.53921718 17.25988198 71.81179048 17.27086362 59.08421946 17.2613129 C57.64485584 17.26029035 56.2054922 17.25929574 54.76612854 17.25832939 C54.0579307 17.257853 53.34973286 17.25737661 52.62007448 17.25688579 C47.62895166 17.25472082 42.63793467 17.26452995 37.64683533 17.27910042 C30.92935155 17.29843714 24.21239057 17.29155609 17.49490166 17.26690102 C15.02656214 17.26187846 12.55818849 17.26542002 10.08987617 17.27804947 C6.72605966 17.29390215 3.36374466 17.27910081 0 17.25637817 C-1.47299836 17.27413177 -1.47299836 17.27413177 -2.97575426 17.29224402 C-7.58526863 17.2287707 -9.65986709 17.13127308 -13.43054962 14.27642727 C-15.32434082 11.62818909 -15.32434082 11.62818909 -15.94934082 8.62818909 C-14.12921957 -0.10839294 -7.42394155 -0.08947847 0 0 Z " fill="#7FA3B3" transform="translate(64.3243408203125,133.37181091308594)"/>
<path d="M0 0 C1.0582355 -0.00623996 2.11647099 -0.01247993 3.20677423 -0.01890898 C6.76449807 -0.03490593 10.32154314 -0.02220802 13.87927246 -0.00964355 C16.42506817 -0.01506167 18.97086074 -0.02218257 21.51664734 -0.03088379 C27.72055174 -0.04725773 33.9242034 -0.04482262 40.12811124 -0.03323323 C45.16947416 -0.02420491 50.21078281 -0.02297228 55.25215149 -0.02732849 C56.32783405 -0.02824789 56.32783405 -0.02824789 57.42524758 -0.02918586 C58.88200154 -0.03046474 60.33875547 -0.0317616 61.7955094 -0.03307623 C75.46010514 -0.04448632 89.1245936 -0.03136162 102.78917176 -0.00987476 C114.51766401 0.00799664 126.24599791 0.00489266 137.9744873 -0.0135498 C151.58970101 -0.03494897 165.20482064 -0.04338765 178.82004881 -0.03110075 C180.27148659 -0.02982653 181.72292438 -0.02856905 183.17436218 -0.02732849 C183.88852394 -0.02671139 184.6026857 -0.02609429 185.33848873 -0.02545848 C190.37463331 -0.02200271 195.41071829 -0.0278388 200.44685364 -0.0372467 C207.22336425 -0.04962732 213.99952904 -0.040831 220.77602577 -0.01766968 C223.26735752 -0.01236748 225.75871438 -0.01392199 228.25003624 -0.02272034 C231.64253948 -0.03359929 235.03407278 -0.02000377 238.42651367 0 C239.41988944 -0.00892289 240.4132652 -0.01784577 241.43674326 -0.02703905 C248.05212422 0.04898299 248.05212422 0.04898299 251.32492828 2.32093048 C253.37651716 5.55275428 253.24784033 7.76585015 252.71325684 11.50793457 C251.32492828 13.69451809 251.32492828 13.69451809 248.71325684 15.50793457 C245.28933767 16.11426608 241.89594464 16.05137969 238.42651367 16.02259827 C236.83916043 16.03301656 236.83916043 16.03301656 235.21973944 16.04364532 C231.66202771 16.06198999 228.10497718 16.05162989 224.54724121 16.04138184 C222.00144448 16.04843646 219.45565196 16.05717954 216.90986633 16.06748962 C210.70596989 16.0876993 204.50231916 16.08899859 198.29840243 16.08086408 C193.25703765 16.07456789 188.21572639 16.07569759 183.17436218 16.08213615 C182.09867962 16.08348864 182.09867962 16.08348864 181.00126609 16.08486844 C179.54451214 16.08671961 178.0877582 16.08858217 176.63100427 16.090456 C162.96641369 16.10704015 149.30192631 16.09830987 135.63734192 16.08147042 C123.13071268 16.06677092 110.62432362 16.08140418 98.11772531 16.11024059 C85.28061224 16.13961903 72.44361009 16.15061156 59.60646486 16.14105839 C58.15502709 16.14003582 56.7035893 16.13904121 55.25215149 16.13807487 C54.53798973 16.13759848 53.82382797 16.1371221 53.08802494 16.13663127 C48.05186063 16.13446518 43.0158011 16.14428143 37.97966003 16.1588459 C31.20309816 16.17817003 24.42705478 16.17131584 17.6504879 16.1466465 C15.15915338 16.14162024 12.66778506 16.14517499 10.17647743 16.15779495 C6.78379661 16.17362531 3.39260903 16.15886763 0 16.13612366 C-0.99337576 16.14795939 -1.98675153 16.15979511 -3.01022959 16.1719895 C-9.64913578 16.08113456 -9.64913578 16.08113456 -12.89841461 13.160079 C-14.5955446 9.91802664 -14.90101383 8.11677476 -14.28674316 4.50793457 C-10.80005718 -0.89627446 -5.79761975 -0.05207647 0 0 Z " fill="#7CA1B1" transform="translate(63.2867431640625,182.4920654296875)"/>
<path d="M0 0 C0.79295345 -0.00709439 1.58590691 -0.01418877 2.40288925 -0.02149814 C5.05717339 -0.03908573 7.70999462 -0.02097032 10.36425781 -0.00291443 C12.26819526 -0.00805297 14.17212796 -0.01533376 16.0760498 -0.02459717 C21.24552489 -0.04312762 26.41448489 -0.0301621 31.5839386 -0.01050687 C36.99216318 0.00586729 42.40035483 -0.00293155 47.80859375 -0.00802612 C56.89103431 -0.01254845 65.97326902 0.00333147 75.05566406 0.03126526 C85.55822426 0.06331771 96.06041316 0.06330183 106.56299973 0.04605049 C116.66350717 0.03019027 126.7638784 0.03691574 136.86437988 0.0539875 C141.16414004 0.06086259 145.46379117 0.05982083 149.7635498 0.05244255 C154.82634196 0.04478507 159.88871124 0.05688843 164.95143127 0.08429146 C166.81021367 0.091182 168.66903551 0.09126611 170.52781677 0.08407593 C173.06393935 0.07539561 175.5987526 0.0913123 178.13476562 0.11352539 C178.87163479 0.10528462 179.60850395 0.09704386 180.36770248 0.08855337 C183.94064985 0.14637624 185.94771721 0.55267468 188.99676514 2.47676182 C191.06738281 4.62818909 191.06738281 4.62818909 192.12988281 7.56568909 C192.04911736 11.52319629 190.82143661 12.87413529 188.06738281 15.62818909 C185.01896038 17.1524003 181.84061322 16.7798561 178.49552917 16.78208923 C177.30994391 16.78866261 177.30994391 16.78866261 176.10040742 16.79536879 C173.43729726 16.80878233 170.7742202 16.81494135 168.11108398 16.82106018 C166.20759429 16.82895907 164.3041061 16.83722789 162.40061951 16.84584045 C156.13721146 16.87208294 149.87379664 16.88736927 143.61035156 16.90162659 C141.45657153 16.90698515 139.30279155 16.91236266 137.14901161 16.91775894 C128.19228158 16.93938999 119.23555337 16.95812811 110.27880383 16.96938133 C97.42966784 16.98562957 84.58083383 17.0188261 71.7318117 17.07578218 C62.70416701 17.11443922 53.67660323 17.13400894 44.64887792 17.1393019 C39.25341872 17.14296086 33.85828144 17.15504019 28.46291161 17.18740463 C23.38786315 17.21741103 18.31333265 17.22382364 13.23821449 17.21202087 C11.37456459 17.21179952 9.51089117 17.22015526 7.64732361 17.23767471 C5.1043171 17.26028211 2.5632022 17.25211183 0.02018738 17.2361908 C-1.08818591 17.25701393 -1.08818591 17.25701393 -2.21895057 17.27825773 C-6.12023708 17.21800333 -7.79726567 16.7357432 -10.89060497 14.27768898 C-12.93261719 11.62818909 -12.93261719 11.62818909 -13.55761719 8.62818909 C-12.02353533 1.26459617 -6.72992737 -0.10809733 0 0 Z " fill="#7FA3B3" transform="translate(61.9326171875,230.37181091308594)"/>
<path d="M0 0 C26.68774704 10.68774704 26.68774704 10.68774704 31 15 C32.21893811 23.34572222 28.88512404 29.83014469 25.44769287 37.20690918 C24.05643471 40.19284793 22.70245544 43.19526067 21.34521484 46.19677734 C20.63427791 47.76764998 19.92136308 49.33762886 19.20654297 50.90673828 C15.79287892 58.40785644 12.535497 65.97190067 9.30895996 73.55502319 C7.74531466 77.22987578 6.17511607 80.90192678 4.60546875 84.57421875 C4.29989044 85.28957291 3.99431213 86.00492706 3.67947388 86.74195862 C0.20224871 94.87686508 -3.31977427 102.99225084 -6.85571289 111.10180664 C-9.76365277 117.78069769 -12.62874545 124.47581261 -15.44941711 131.1920929 C-17.0772831 135.06644036 -18.71345142 138.93726201 -20.34970093 142.80807495 C-21.1538913 144.71738207 -21.95392864 146.62844409 -22.74966431 148.54129028 C-23.86574938 151.22341279 -24.99585587 153.89922794 -26.12890625 156.57421875 C-26.46069885 157.38214874 -26.79249146 158.19007874 -27.13433838 159.02249146 C-30.0815178 165.91349586 -30.0815178 165.91349586 -34 168 C-36.76090119 168.64708622 -39.22821614 168.58950004 -42 168 C-44.5625 166 -44.5625 166 -46 163 C-45.66172684 157.13092196 -44.27305679 152.54640071 -41.8515625 147.234375 C-41.52768555 146.50058121 -41.20380859 145.76678741 -40.87011719 145.01075745 C-40.16717537 143.4214225 -39.4594268 141.83420653 -38.74737549 140.24893188 C-37.59738434 137.68851465 -36.45995279 135.12283786 -35.32568359 132.55541992 C-34.12159848 129.8303239 -32.91675086 127.10559342 -31.7081604 124.38249207 C-27.27436806 114.39049294 -22.94668876 104.35337371 -18.625 94.3125 C-17.04877535 90.65078368 -15.4720547 86.98928198 -13.89453125 83.328125 C-13.50022415 82.41283524 -13.10591705 81.49754547 -12.69966125 80.55451965 C-10.13258782 74.60351924 -7.54351167 68.66249983 -4.9407959 62.727005 C-3.15600933 58.65529623 -1.37780022 54.58073002 0.39996338 50.50595093 C1.25243598 48.55710441 2.10814643 46.60967074 2.96722412 44.66372681 C4.15695103 41.96813588 5.33547177 39.26790061 6.51171875 36.56640625 C6.86696121 35.76954407 7.22220367 34.97268188 7.58821106 34.15167236 C7.90803452 33.41140808 8.22785797 32.6711438 8.55737305 31.90844727 C8.83759811 31.27060806 9.11782318 30.63276886 9.40653992 29.9756012 C10.23974554 27.54570024 10.23974554 27.54570024 10 23 C4.72 20.69 -0.56 18.38 -6 16 C-5.16583712 11.82918558 -4.21232487 8.96469139 -2.4375 5.1875 C-1.98246094 4.21167969 -1.52742188 3.23585938 -1.05859375 2.23046875 C-0.53458984 1.12638672 -0.53458984 1.12638672 0 0 Z " fill="#7BA1B1" transform="translate(481,65)"/>
<path d="M0 0 C0.59167465 0.25874405 1.1833493 0.5174881 1.79295349 0.78407288 C16.3378046 7.13952119 30.92903757 13.36980788 45.57543945 19.48706055 C48.02107009 20.50918253 50.4656546 21.53377525 52.91015625 22.55859375 C53.6382399 22.86171982 54.36632355 23.16484589 55.11647034 23.47715759 C59.16018446 25.17355584 63.09853942 26.99027239 67 29 C63.71615021 33.20743255 60.23064602 36.62597247 56.171875 40.08203125 C53.84749602 42.13467527 51.67559406 44.29064672 49.5 46.5 C46.11758601 49.9288279 42.61929558 53.12048518 38.96484375 56.25390625 C36.89179676 58.09615675 34.94564198 60.02401662 33 62 C29.77246558 65.27174722 26.43970838 68.34870968 22.9375 71.32421875 C21.65362986 72.43466288 20.40210434 73.58372141 19.1875 74.76953125 C16.19768178 77.61920174 14.58575564 78.88695944 10.4375 79.6875 C5.87730399 78.7754608 4.23577014 77.31281229 1 74 C-0.16035505 70.51893486 -0.12002704 67.8152767 -0.11352539 64.1418457 C-0.11367142 63.44890411 -0.11381744 62.75596252 -0.1139679 62.04202271 C-0.11327163 59.75324363 -0.1054926 57.4645461 -0.09765625 55.17578125 C-0.09579106 53.58823186 -0.09436763 52.00068189 -0.09336853 50.41313171 C-0.08955134 46.2357728 -0.07972786 42.05844869 -0.06866455 37.88110352 C-0.05843328 33.61800609 -0.05386723 29.35490304 -0.04882812 25.09179688 C-0.03810489 16.72784862 -0.02103803 8.36392864 0 0 Z " fill="#63DBFA" transform="translate(253,409)"/>
<path d="M0 0 C3.41268117 2.51591823 6.53409996 5.25622917 9.60546875 8.17578125 C15.47278589 13.26816971 20.37159358 13.57054201 27.9375 13.32421875 C35.63824133 12.6000111 41.21734553 9.30415161 46.67578125 3.97265625 C48.03589734 1.9907728 49.37369329 -0.00686244 50.67578125 -2.02734375 C53.67578125 -4.02734375 53.67578125 -4.02734375 57.17578125 -3.83984375 C60.67578125 -3.02734375 60.67578125 -3.02734375 62.61328125 -1.96484375 C64.50019539 1.47599969 64.7003527 4.28056151 63.67578125 7.97265625 C57.31746338 18.60034823 47.3798228 25.40193171 35.67578125 28.97265625 C24.49340338 31.14145306 14.37990934 30.95161475 4.6328125 24.65234375 C1.72083333 22.52502963 -1.02608846 20.22086267 -3.796875 17.9140625 C-12.32213715 10.90611699 -18.36665369 8.23091401 -29.59765625 8.5078125 C-37.95393438 9.55015747 -42.69620152 13.89118843 -47.82421875 20.28515625 C-48.45328125 21.14753906 -49.08234375 22.00992187 -49.73046875 22.8984375 C-51.32421875 24.97265625 -51.32421875 24.97265625 -53.32421875 25.97265625 C-56.82759856 26.3534584 -58.68700501 26.37510703 -61.69921875 24.47265625 C-63.50021764 21.70188873 -64.13837675 19.57582367 -63.96484375 16.25390625 C-61.75832563 8.39654903 -54.06460308 2.09041831 -47.32421875 -2.02734375 C-31.32983735 -10.91848024 -15.27631975 -10.17701075 0 0 Z " fill="#82B5FB" transform="translate(112.32421875,416.02734375)"/>
<path d="M0 0 C0.78273788 -0.0087616 1.56547577 -0.01752319 2.37193298 -0.02655029 C4.95099857 -0.04849925 7.52833986 -0.03400882 10.10742188 -0.01708984 C11.9043409 -0.0204593 13.70125771 -0.02531301 15.49816895 -0.03158569 C19.26088193 -0.03895088 23.02300072 -0.02826321 26.78564453 -0.00488281 C31.60468084 0.0236051 36.42232487 0.00719918 41.24131012 -0.02274513 C44.95089171 -0.04082788 48.66014412 -0.03505567 52.36973572 -0.02210617 C54.14631821 -0.01877484 55.92293076 -0.02284965 57.69947815 -0.03450394 C60.1845698 -0.04722931 62.66741884 -0.02781507 65.15234375 0 C66.24971107 -0.01518173 66.24971107 -0.01518173 67.36924744 -0.03067017 C71.2431959 0.0495115 72.96976149 0.56476882 76.07141113 2.96084595 C78.07617188 5.64697266 78.07617188 5.64697266 78.07617188 9.27197266 C76.72057943 13.84709715 76.72057943 13.84709715 74.07617188 15.64697266 C71.36824823 15.94822194 68.88917036 16.06709308 66.17993164 16.05102539 C65.37637238 16.05788864 64.57281311 16.06475189 63.74490356 16.07182312 C61.08561591 16.09014151 58.42691541 16.08624645 55.76757812 16.08056641 C53.92056587 16.08512593 52.07355531 16.09043082 50.22654724 16.09645081 C46.35367953 16.1053919 42.48101791 16.10294762 38.6081543 16.09301758 C33.6434444 16.08152896 28.67944586 16.10173253 23.71482944 16.13093472 C19.89983089 16.14927586 16.08500342 16.14900839 12.26997185 16.1432972 C10.43952372 16.14314371 8.60906419 16.14921034 6.77865791 16.16158867 C4.21925295 16.17645706 1.66117005 16.16585288 -0.89819336 16.14868164 C-1.65521042 16.15834961 -2.41222748 16.16801758 -3.19218445 16.17797852 C-6.65874743 16.12924541 -8.58017287 15.90442549 -11.39027405 13.79920959 C-12.92382812 11.64697266 -12.92382812 11.64697266 -13.48632812 8.70947266 C-12.12283431 1.28600631 -6.71907327 -0.09295627 0 0 Z " fill="#7CA1B1" transform="translate(61.923828125,279.35302734375)"/>
<path d="M0 0 C0.2475 0.66 0.495 1.32 0.75 2 C1.86447677 4.84746178 1.86447677 4.84746178 3.0234375 6.796875 C3.38695312 7.44140625 3.75046875 8.0859375 4.125 8.75 C4.65480469 9.63945312 4.65480469 9.63945312 5.1953125 10.546875 C8.10190785 19.40775791 4.52446862 26.81864044 1.0625 34.9375 C0.59392578 36.07251953 0.12535156 37.20753906 -0.35742188 38.37695312 C-3.59726154 46.19452308 -3.59726154 46.19452308 -5 49 C-11.87947032 46.8197371 -18.45055898 44.19745965 -25.0625 41.3125 C-26.02349609 40.89677734 -26.98449219 40.48105469 -27.97460938 40.05273438 C-30.31787486 39.03848513 -32.65960887 38.02085998 -35 37 C-24.67249956 8.00355647 -24.67249956 8.00355647 -15.1640625 2.90625 C-9.98005734 0.73533087 -5.62909709 -0.2745901 0 0 Z " fill="#98E5FC" transform="translate(460,5)"/>
<path d="M0 0 C4.62640153 -0.09901748 9.25218387 -0.17153649 13.87939453 -0.21972656 C15.45274604 -0.2398188 17.02602308 -0.26709799 18.59912109 -0.30175781 C20.86314272 -0.35038494 23.12617573 -0.37299135 25.390625 -0.390625 C26.09181458 -0.41127014 26.79300415 -0.43191528 27.51544189 -0.45318604 C30.75046843 -0.45466605 32.71471877 -0.18655962 35.44458008 1.59863281 C37.5252652 4.81094153 37.50193324 6.9980449 37.49609375 10.8125 C37.49754898 11.46323486 37.49900421 12.11396973 37.50050354 12.78442383 C37.49884833 14.15613293 37.48732896 15.52786132 37.46655273 16.89941406 C37.4375879 18.99364461 37.44595005 21.08534258 37.45898438 23.1796875 C37.45274639 24.51563725 37.44435497 25.85157903 37.43359375 27.1875 C37.42384521 28.39792969 37.41409668 29.60835937 37.40405273 30.85546875 C36.95778694 34.32852215 36.71005117 35.76955567 34 38 C31.35294872 38.35669893 29.12764324 38.46776797 26.48828125 38.390625 C25.76005661 38.38496521 25.03183197 38.37930542 24.28153992 38.37347412 C21.95785502 38.35110029 19.63571793 38.30090669 17.3125 38.25 C15.73635041 38.22993609 14.16017663 38.21168512 12.58398438 38.1953125 C8.72206076 38.15123283 4.8612927 38.08220225 1 38 C1.33 37.34 1.66 36.68 2 36 C2.11072311 33.55422877 2.16409126 31.13778745 2.16796875 28.69140625 C2.17129715 27.96888168 2.17462555 27.24635712 2.17805481 26.50193787 C2.18311988 24.9728967 2.18546326 23.44384447 2.18530273 21.91479492 C2.18748816 19.5751728 2.2056448 17.23602297 2.22460938 14.89648438 C2.22754359 13.41145995 2.2295282 11.92643328 2.23046875 10.44140625 C2.23765427 9.7413295 2.24483978 9.04125275 2.25224304 8.31996155 C2.23497262 4.64876732 2.0949823 3.14247344 0 0 Z " fill="#688E99" transform="translate(232,56)"/>
<path d="M0 0 C7.59 3.3 15.18 6.6 23 10 C28.66132883 12.34998555 34.31984366 14.69743998 40 17 C38.67789474 19.96042705 37.28756353 21.92306868 34.90234375 24.109375 C34.27352295 24.69170898 33.64470215 25.27404297 32.99682617 25.87402344 C32.31724854 26.4930957 31.6376709 27.11216797 30.9375 27.75 C29.49450156 29.08301936 28.05180388 30.41636435 26.609375 31.75 C25.85720703 32.44222656 25.10503906 33.13445312 24.33007812 33.84765625 C20.42442184 37.45539575 16.55695854 41.10353004 12.6875 44.75 C11.9648999 45.42901367 11.2422998 46.10802734 10.49780273 46.80761719 C9.82177002 47.44344727 9.1457373 48.07927734 8.44921875 48.734375 C7.85455811 49.29350586 7.25989746 49.85263672 6.6472168 50.42871094 C5.83184448 51.20649902 5.83184448 51.20649902 5 52 C4.44441406 52.48412354 3.88882812 52.96824707 3.31640625 53.46704102 C0.99282438 56.172859 1.41700932 59.76855218 1.3125 63.1875 C1.27833984 63.93708984 1.24417969 64.68667969 1.20898438 65.45898438 C1.12665706 67.30546838 1.06164719 69.15270994 1 71 C0.67 71 0.34 71 0 71 C0 47.57 0 24.14 0 0 Z " fill="#9AE5FB" transform="translate(253,409)"/>
<path d="M0 0 C5.07978034 -0.63497254 7.94986479 0.67610589 12.0390625 3.44140625 C17.5309651 7.80648421 21.20744287 12.62794303 22.4765625 19.62890625 C23.11831276 32.31191799 17.41546611 44.30755648 11 55 C6.05 53.02 1.1 51.04 -4 49 C-3.22923192 45.14615958 -2.42932668 42.33737046 -0.93359375 38.796875 C-0.53076172 37.81589844 -0.12792969 36.83492187 0.28710938 35.82421875 C1.13242096 33.78666831 1.98649995 31.75273152 2.84960938 29.72265625 C5.77042091 22.54955568 7.59283423 16.50813231 4.94140625 9.00390625 C4.48636719 8.19824219 4.03132813 7.39257812 3.5625 6.5625 C3.11003906 5.73878906 2.65757812 4.91507813 2.19140625 4.06640625 C1.79824219 3.38449219 1.40507812 2.70257812 1 2 C0.67 1.34 0.34 0.68 0 0 Z " fill="#63DBFB" transform="translate(459,6)"/>
</svg>
